<?xml version="1.0" standalone="no"?><!DOCTYPE svg PUBLIC "-//W3C//DTD SVG 1.1//EN" "http://www.w3.org/Graphics/SVG/1.1/DTD/svg11.dtd"><svg t="1492417874184" class="icon" style="" viewBox="0 0 1025 1024" version="1.1" xmlns="http://www.w3.org/2000/svg" p-id="5096" xmlns:xlink="http://www.w3.org/1999/xlink" width="128.125" height="128"><defs><style type="text/css"></style></defs><path d="M786.285714 804.571429l18.285714 0 0-365.714286-18.285714 0q-20 0-38.571429-6.857143t-35.714286-21.142857-28.571429-26.285714-28-30.857143q-1.142857-1.714286-2-2.571429t-2.285714-2.571429-2.571429-2.857143q-41.142857-46.285714-64-82.857143-8-12.571429-21.714286-38.857143-0.571429-1.714286-6-12.857143t-10.571429-20.571429-11.428571-20.285714-12.285714-17.428571-10.571429-6.571429q-40.571429 0-66 17.428571t-25.428571 55.714286q0 24.571429 8.571429 48.285714t18.857143 38.857143 18.857143 31.428571 8.571429 27.714286l-329.142857 0q-28.571429 0-50.857143 22t-22.285714 51.142857q0 29.714286 21.714286 51.428571t51.428571 21.714286l189.142857 0q-8.571429 9.714286-14.285714 27.142857t-5.714286 31.714286q0 39.428571 30.285714 68-10.285714 18.285714-10.285714 39.428571t10 42 27.142857 30q-2.285714 13.714286-2.285714 32 0 48.571429 27.714286 72t77.428571 23.428571q48 0 104.571429-18.285714t110.857143-36.571429 95.428571-18.285714zm164.571429-36.571429q0-14.857143-10.857143-25.714286t-25.714286-10.857143-25.714286 10.857143-10.857143 25.714286 10.857143 25.714286 25.714286 10.857143 25.714286-10.857143 10.857143-25.714286zm73.142857-329.142857l0 365.714286q0 30.285714-21.428571 51.714286t-51.714286 21.428571l-164.571429 0q-33.714286 0-127.428571 33.714286-108.571429 39.428571-181.142857 39.428571-81.142857 0-131.428571-44.285714t-49.714286-124.285714l0.571429-2.857143q-34.857143-43.428571-34.857143-101.714286 0-12.571429 1.714286-24.571429-18.857143-32.571429-21.142857-68l-96.571429 0q-60 0-103.142857-43.428571t-43.142857-103.428571q0-58.857143 43.428571-102.285714t102.857143-43.428571l213.714286 0q-12.571429-34.285714-12.571429-73.142857 0-69.714286 46.571429-108t118-38.285714q21.714286 0 39.714286 10t31.428571 28.285714 23.142857 36 21.142857 41.142857 18.857143 35.428571q20 31.428571 57.142857 73.714286 1.142857 1.714286 8 9.714286t10.857143 12.285714 11.714286 12.285714 13.714286 12.857143 12.857143 10.285714 13.428571 8 12.285714 2.571429l164.571429 0q30.285714 0 51.714286 21.428571t21.428571 51.714286z" p-id="5097" fill="#13227a"></path></svg>