<?xml version="1.0" standalone="no"?><!DOCTYPE svg PUBLIC "-//W3C//DTD SVG 1.1//EN" "http://www.w3.org/Graphics/SVG/1.1/DTD/svg11.dtd"><svg t="1492420047932" class="icon" style="" viewBox="0 0 1024 1024" version="1.1" xmlns="http://www.w3.org/2000/svg" p-id="6047" xmlns:xlink="http://www.w3.org/1999/xlink" width="128" height="128"><defs><style type="text/css"></style></defs><path d="M544.188605 0q23.13556 0 43.756385 13.076621t27.662083 36.212181 2.011788 43.756385-17.100196 33.697446q-12.070727 12.070727-14.082515 22.129666t-1.005894 23.13556q1.005894 9.053045 16.094303 21.123772t41.24165 21.123772q27.159136 9.053045 41.24165 20.620825t23.13556 33.697446q5.02947 11.064833 12.573674 30.176817t16.094303 41.24165 15.591356 45.265226 12.070727 41.24165q4.023576 17.100196 6.035363 34.70334t-0.502947 32.691552-11.56778 26.153242-25.147348 17.100196q-12.070727 4.023576-17.603143 1.005894t-7.544204-9.555992-2.514735-15.088409-1.508841-16.59725q-2.011788-16.094303-10.561886-33.194499t-19.614931-46.27112q-5.02947-14.082515-8.047151-17.603143t-4.526523-1.005894-2.011788 8.047151-0.502947 9.555992q0 7.041257 2.514735 26.656189t6.53831 49.791749-0.502947 45.768173-4.526523 26.656189 2.011788 29.170923l4.023576 36.212181q1.005894 9.053045 1.005894 26.656189t-0.502947 38.223969-1.005894 41.744597-0.502947 36.212181 1.005894 42.247544 2.011788 56.330059 2.011788 54.318271 1.005894 35.206287q1.005894 11.064833-1.508841 14.585462t-6.53831 4.526523-10.058939-1.005894q1.005894 2.011788 1.005894 5.02947 0 6.035363 1.005894 9.053045 2.011788 13.076621-7.544204 22.632613t-23.638507 6.53831q-11.064833-2.011788-16.59725-8.550098t-7.544204-14.585462q-3.017682-9.053045-2.011788-19.111984l-10.058939-2.011788q-5.02947-2.011788-8.047151-19.111984 0-4.023576-1.005894-16.59725t-1.508841-29.170923-1.508841-33.697446-2.011788-29.170923-3.017682-33.697446-4.023576-44.259332-4.023576-44.259332-2.011788-33.697446q-1.005894-9.053045-3.017682-22.129666t-4.023576-25.650295-5.02947-21.626719-5.02947-9.053045-5.02947 8.550098-6.035363 20.620825-5.02947 26.153242-2.011788 24.141454q0 12.070727-1.508841 32.188605t-4.023576 42.750491-4.526523 43.756385-3.017682 35.206287-2.011788 30.679764-2.011788 32.691552-2.011788 29.67387-1.005894 20.620825q0 8.047151-2.514735 11.064833t-5.532417 5.02947q-4.023576 2.011788-8.047151 1.005894l0 11.064833q0 5.02947-1.005894 9.555992t-3.017682 7.544204q-5.02947 6.035363-17.603143 12.070727t-25.650295-4.023576q-5.02947-5.02947-7.041257-11.56778t-2.011788-12.573674q0-7.041257 2.011788-15.088409l-5.02947 0q-8.047151 0-11.56778-3.520629t-4.526523-9.053045 0-12.070727 1.005894-12.573674q1.005894-6.035363 2.011788-27.662083t2.011788-47.277014 2.011788-50.797642 1.005894-39.229862l0-31.182711q0-17.100196-0.502947-35.206287t-0.502947-36.212181l0-32.188605 0-45.265226q0-16.094303 2.011788-27.159136 3.017682-11.064833 0-24.644401t-3.017682-30.679764q-1.005894-17.100196 4.023576-39.229862t6.035363-53.312377q0-15.088409-2.011788-18.609037t-5.02947-0.502947-6.53831 9.555992-5.532417 10.561886q-2.011788 5.02947-6.035363 15.591356t-8.047151 22.129666-6.53831 21.626719-2.514735 13.076621 0.502947 11.064833-1.005894 16.094303-6.53831 13.579568-15.088409 5.532417q-20.117878-1.005894-35.709234-17.603143t-13.579568-54.821218q1.005894-19.111984 10.561886-51.803536t21.626719-66.891945 24.141454-62.365422 18.10609-39.229862q13.076621-21.123772 31.685658-26.656189t32.691552-10.561886 29.67387-14.585462 17.603143-24.644401q1.005894-12.070727 0-21.123772t-9.053045-18.10609q-14.082515-13.076621-19.111984-32.691552t-1.005894-39.732809q6.035363-33.194499 27.159136-46.27112t42.247544-13.076621z" p-id="6048" fill="#13227a"></path></svg>