<?xml version="1.0" standalone="no"?><!DOCTYPE svg PUBLIC "-//W3C//DTD SVG 1.1//EN" "http://www.w3.org/Graphics/SVG/1.1/DTD/svg11.dtd"><svg t="1492433609855" class="icon" style="" viewBox="0 0 1024 1024" version="1.1" xmlns="http://www.w3.org/2000/svg" p-id="5302" xmlns:xlink="http://www.w3.org/1999/xlink" width="128" height="128"><defs><style type="text/css"></style></defs><path d="M943.953 686.989c-8.842 0-15.998 7.186-15.998 15.998l0 47.997c0 88.371-71.623 159.993-159.992 159.993L255.988 910.977c-88.371 0-159.993-71.622-159.993-159.993l0-47.997c0-8.813-7.156-15.998-15.999-15.998-8.844 0-16 7.186-16 15.998l0 47.997c0 106.026 85.964 191.99 191.991 191.99l511.975 0c106.025 0 191.992-85.964 191.992-191.99l0-47.997C959.955 694.175 952.797 686.989 943.953 686.989zM767.963 79.017 255.988 79.017c-106.027 0-191.991 85.965-191.991 191.99l0 47.999c0 8.843 7.156 16 16 16 8.843 0 15.999-7.156 15.999-16l0-47.999c0-88.37 71.622-159.991 159.993-159.991l511.975 0c88.369 0 159.992 71.621 159.992 159.991l0 47.999c0 8.843 7.156 16 15.998 16 8.844 0 16.002-7.156 16.002-16l0-47.999C959.955 164.982 873.988 79.017 767.963 79.017zM943.953 494.997 79.997 494.997c-8.844 0-16 7.187-16 16 0 8.842 7.156 16 16 16l863.957 0c8.844 0 16.002-7.157 16.002-16C959.955 502.184 952.797 494.997 943.953 494.997z" p-id="5303" fill="#1afa29"></path></svg>