<?xml version="1.0" standalone="no"?><!DOCTYPE svg PUBLIC "-//W3C//DTD SVG 1.1//EN" "http://www.w3.org/Graphics/SVG/1.1/DTD/svg11.dtd"><svg t="1492400546122" class="icon" style="" viewBox="0 0 1024 1024" version="1.1" xmlns="http://www.w3.org/2000/svg" p-id="5767" xmlns:xlink="http://www.w3.org/1999/xlink" width="128" height="128"><defs><style type="text/css"></style></defs><path d="M111.291733 1024 111.291733 422.9632c0-49.169067 39.867733-89.0368 89.053867-89.0368l0 0 0-89.053867c0-24.576 19.933867-44.509867 44.509867-44.509867l44.509867 0L289.365333 22.254933C289.3824 9.966933 299.349333 0 311.6544 0c12.288 0 22.272 9.966933 22.272 22.254933l0 178.090667 44.509867 0c24.576 0 44.509867 19.933867 44.509867 44.509867l0 89.053867 0 0 0 0c49.186133 0 89.053867 39.867733 89.053867 89.0368l0 178.090667 155.835733 0 0-133.5808 89.0368 0 0-66.781867 133.563733 0 0 66.781867 22.272 0L912.708267 1024 111.291733 1024zM378.436267 267.127467c0-12.305067-9.966933-22.272-22.272-22.272l-89.0368 0c-12.305067 0-22.272 9.966933-22.272 22.272l0 66.781867 133.563733 0L378.4192 267.127467zM467.473067 422.9632c0-24.593067-19.933867-44.526933-44.509867-44.526933L200.3456 378.436267c-24.593067 0-44.526933 19.933867-44.526933 44.526933l0 556.526933 311.6544 0L467.473067 422.9632zM667.835733 645.563733 512 645.563733l0 333.909333 155.835733 0L667.835733 645.563733zM868.164267 512l-155.818667 0 0 467.490133 155.818667 0L868.164267 512zM779.127467 578.781867l22.254933 0c12.322133 0 22.272 9.966933 22.272 22.272l0 22.254933c0 12.322133-9.949867 22.272-22.272 22.272l-22.254933 0c-12.305067 0-22.272-9.949867-22.272-22.272l0-22.254933C756.872533 588.7488 766.839467 578.781867 779.127467 578.781867zM779.127467 712.3456l22.254933 0c12.322133 0 22.272 9.949867 22.272 22.272l0 22.254933c0 12.305067-9.949867 22.272-22.272 22.272l-22.254933 0c-12.305067 0-22.272-9.966933-22.272-22.272l0-22.254933C756.872533 722.295467 766.839467 712.3456 779.127467 712.3456zM779.127467 845.909333l22.254933 0c12.322133 0 22.272 9.949867 22.272 22.254933l0 22.272c0 12.305067-9.949867 22.272-22.272 22.272l-22.254933 0c-12.305067 0-22.272-9.966933-22.272-22.272l0-22.272C756.872533 855.8592 766.839467 845.909333 779.127467 845.909333zM578.781867 712.3456l22.254933 0c12.305067 0 22.272 9.949867 22.272 22.272l0 22.254933c0 12.305067-9.966933 22.272-22.272 22.272l-22.254933 0c-12.305067 0-22.272-9.966933-22.272-22.272l0-22.254933C556.509867 722.295467 566.4768 712.3456 578.781867 712.3456zM578.781867 845.909333l22.254933 0c12.305067 0 22.272 9.949867 22.272 22.254933l0 22.272c0 12.305067-9.966933 22.272-22.272 22.272l-22.254933 0c-12.305067 0-22.272-9.966933-22.272-22.272l0-22.272C556.509867 855.8592 566.4768 845.909333 578.781867 845.909333zM378.436267 912.708267l-22.272 0c-12.288 0-22.254933-9.966933-22.254933-22.272l0-22.272c0-12.305067 9.966933-22.254933 22.254933-22.254933l22.272 0c12.288 0 22.254933 9.949867 22.254933 22.254933l0 22.272C400.6912 902.741333 390.724267 912.708267 378.436267 912.708267zM378.436267 779.127467l-22.272 0c-12.288 0-22.254933-9.966933-22.254933-22.272l0-22.254933c0-12.322133 9.966933-22.272 22.254933-22.272l22.272 0c12.288 0 22.254933 9.949867 22.254933 22.272l0 22.254933C400.6912 769.160533 390.724267 779.127467 378.436267 779.127467zM378.436267 645.563733l-22.272 0c-12.288 0-22.254933-9.949867-22.254933-22.272l0-22.254933c0-12.305067 9.966933-22.272 22.254933-22.272l22.272 0c12.288 0 22.254933 9.966933 22.254933 22.272l0 22.254933C400.6912 635.613867 390.724267 645.563733 378.436267 645.563733zM378.436267 512l-22.272 0c-12.288 0-22.254933-9.966933-22.254933-22.254933l0-22.272c0-12.288 9.966933-22.254933 22.254933-22.254933l22.272 0c12.288 0 22.254933 9.966933 22.254933 22.254933l0 22.272C400.6912 502.033067 390.724267 512 378.436267 512zM267.127467 912.708267l-22.272 0c-12.305067 0-22.272-9.966933-22.272-22.272l0-22.272c0-12.305067 9.966933-22.254933 22.272-22.254933l22.272 0c12.288 0 22.254933 9.949867 22.254933 22.254933l0 22.272C289.3824 902.741333 279.415467 912.708267 267.127467 912.708267zM267.127467 779.127467l-22.272 0c-12.305067 0-22.272-9.966933-22.272-22.272l0-22.254933c0-12.322133 9.966933-22.272 22.272-22.272l22.272 0c12.288 0 22.254933 9.949867 22.254933 22.272l0 22.254933C289.3824 769.160533 279.415467 779.127467 267.127467 779.127467zM267.127467 645.563733l-22.272 0c-12.305067 0-22.272-9.949867-22.272-22.272l0-22.254933c0-12.305067 9.966933-22.272 22.272-22.272l22.272 0c12.288 0 22.254933 9.966933 22.254933 22.272l0 22.254933C289.3824 635.613867 279.415467 645.563733 267.127467 645.563733zM267.127467 512l-22.272 0c-12.305067 0-22.272-9.966933-22.272-22.254933l0-22.272c0-12.288 9.966933-22.254933 22.272-22.254933l22.272 0c12.288 0 22.254933 9.966933 22.254933 22.254933l0 22.272C289.3824 502.033067 279.415467 512 267.127467 512z" p-id="5768" fill="#1296db"></path></svg>