<?xml version="1.0" standalone="no"?><!DOCTYPE svg PUBLIC "-//W3C//DTD SVG 1.1//EN" "http://www.w3.org/Graphics/SVG/1.1/DTD/svg11.dtd"><svg t="1492398313902" class="icon" style="" viewBox="0 0 1025 1024" version="1.1" xmlns="http://www.w3.org/2000/svg" p-id="4846" xmlns:xlink="http://www.w3.org/1999/xlink" width="128.125" height="128"><defs><style type="text/css"></style></defs><path d="M796.107023 516.524253 796.107023 444.048035C796.107023 335.305263 653.856801 335.305263 653.856801 444.048035L653.856801 371.543372C653.856801 262.800601 511.578135 262.800601 511.578135 371.543372L511.578135 81.553167C511.578135-27.189604 369.327913-27.189604 369.327913 81.553167L369.327913 776.135886 207.280419 609.907072C140.720627 542.095728 40.653384 644.609186 107.184732 712.448974L391.941175 1002.5814C405.281578 1016.177802 424.197074 1024 442.486795 1024L869.29435 1024C908.547561 1024 938.357245 991.203658 938.357245 951.154005L938.357245 516.524253C938.357245 407.781481 796.107023 407.781481 796.107023 516.524253" p-id="4847" fill="#515151"></path></svg>