<?xml version="1.0" standalone="no"?><!DOCTYPE svg PUBLIC "-//W3C//DTD SVG 1.1//EN" "http://www.w3.org/Graphics/SVG/1.1/DTD/svg11.dtd"><svg t="1492333053995" class="icon" style="" viewBox="0 0 1024 1024" version="1.1" xmlns="http://www.w3.org/2000/svg" p-id="2377" xmlns:xlink="http://www.w3.org/1999/xlink" width="128" height="128"><defs><style type="text/css"></style></defs><path d="M852.562443 687.761026c38.652322-62.999846 60.310597-148.7263 60.310597-228.055043 0-228.906433-185.561229-414.471756-414.467663-414.471756-228.903364 0-414.468686 185.565323-414.468686 414.471756 0 228.903364 185.565323 414.468686 414.468686 414.468686 74.789357 0 144.949276-19.808138 205.526957-54.466496 30.970362-17.71957 173.251879 155.227364 245.517763 110.305245C1035.535731 876.500645 834.751798 716.78813 852.562443 687.761026zM495.753991 773.940804c-176.040389 0-318.750671-142.707213-318.750671-318.750671 0-176.040389 142.710282-318.750671 318.750671-318.750671s318.750671 142.710282 318.750671 318.750671C814.504662 631.233592 671.794379 773.940804 495.753991 773.940804z" p-id="2378" fill="#2c2c2c"></path></svg>