<?xml version="1.0" standalone="no"?><!DOCTYPE svg PUBLIC "-//W3C//DTD SVG 1.1//EN" "http://www.w3.org/Graphics/SVG/1.1/DTD/svg11.dtd"><svg t="1492349533167" class="icon" style="" viewBox="0 0 1024 1024" version="1.1" xmlns="http://www.w3.org/2000/svg" p-id="6745" xmlns:xlink="http://www.w3.org/1999/xlink" width="128" height="128"><defs><style type="text/css"></style></defs><path d="M516.965355 1011.461224c-214.697273 0-411.497535-144.496849-478.563265-351.395004l-3.870302-11.928555 23.85711-7.740604 3.861943 11.928555C126.014694 849.008849 313.001273 986.383673 516.965355 986.383673c203.955722 0 390.950661-137.374824 454.714514-334.058057l3.870302-11.928555 23.857111 7.740604-3.870302 11.928555C928.46289 866.964376 731.662629 1011.461224 516.965355 1011.461224zM977.430988 387.4816l-3.443984-12.053943C915.547951 170.870073 731.879967 33.436735 516.965355 33.436735S118.382759 170.870073 59.943706 375.427657l-3.443984 12.053943-24.116244-6.887967 3.443983-12.053943C97.376131 153.106808 290.732408 8.359184 516.965355 8.359184c226.224588 0 419.580865 144.747624 481.137894 360.180506l3.443984 12.053943-24.116245 6.887967z" fill="#FF7272" p-id="6746"></path><path d="M516.965355 927.869388c-170.18462 0-327.2704-108.560718-390.875428-270.13538l-1.529731-3.895379 7.7824-3.059462 1.529731 3.887021C196.223478 813.081078 350.182922 919.510204 516.965355 919.510204s320.733518-106.429127 383.101388-264.852375l1.52973-3.887021 7.7824 3.059461-1.538089 3.89538C844.227396 819.308669 687.149976 927.869388 516.965355 927.869388zM904.413518 377.283396l-1.345828-3.953894C846.584686 207.474939 695.032686 100.310204 516.965355 100.310204c-178.058971 0-329.619331 107.164735-386.102335 273.019298l-1.345828 3.953894-7.907788-2.691657 1.345829-3.953894C180.608522 201.339298 335.270139 91.95102 516.965355 91.95102s336.356833 109.388278 394.018482 278.686825l1.345828 3.953894-7.916147 2.691657z" fill="#FF7272" p-id="6747"></path><path d="M45.198106 554.581682v-68.963266H16.977502l-3.134694-4.70622c1.044898 0.526629 3.920457 0.785763 8.618319 0.785763H40.491886c3.652963-5.216131 6.528522-7.840914 8.618318-7.840914 9.404082 3.143053 16.459233 6.796016 21.165453 10.975608 0 0.526629-1.312392 1.83902-3.920457 3.920457-2.616424 2.089796-3.661322 3.134694-3.134694 3.134694v68.963265C83.065208 546.740767 95.353208 538.122449 100.051069 534.987755c1.571527 0 2.348931 0.785763 2.348931 2.348931-18.808163 21.942857-33.695869 40.75102-44.671478 56.42449-0.526629 0-1.571527 0.259135-3.134693 0.785763a1830.159673 1830.159673 0 0 1-12.538776-16.459233 3.903739 3.903739 0 0 1 0-4.70622c1.571527-4.171233 2.616424-10.44062 3.143053-18.799804z m-12.538775-131.657143c17.244996-0.518269 28.212245 3.920457 32.918465 13.324539 2.608065 7.322645 1.044898 13.592033-4.70622 18.808163-5.22449 4.187951-10.457339 3.402188-15.67347-2.348931-1.571527-1.571527-2.616424-3.920457-3.134694-7.055151-1.053257-8.350824-4.70622-14.887706-10.975608-19.593926-1.053257-1.044898-0.526629-2.081437 1.571527-3.134694z m90.906122 172.408163l1.571527-98.747037H80.465502l-3.920457-5.483624c2.081437 0.526629 4.179592 0.785763 6.269388 0.785763h42.322547l0.785763-43.885714v-20.37969l-0.785763-12.538776 1.571526-0.785763c12.012147 2.089796 20.37969 4.187951 25.077551 6.269388a3.352033 3.352033 0 0 1 0 3.134694c-0.526629 1.053257-1.83902 2.348931-3.920457 3.920457H147.071478v64.265404h18.808163c6.787657-9.922351 11.485518-15.932604 14.110302-18.0224h3.134694a444.792163 444.792163 0 0 1 23.514383 18.0224c1.044898 2.089796 0.785763 3.661322-0.785763 4.70622H147.071478v96.389747c-1.053257 4.179592-5.751118 7.055151-14.110302 8.618319-6.261029 0.50991-9.395722-1.571527-9.395723-6.269388zM326.534792 496.585665l-7.840914 2.348931c-4.187951 6.796016-11.243102 15.673469-21.157094 26.649077a52.395363 52.395363 0 0 0-4.706221 5.483625l-4.70622 4.70622c6.269388 12.020506 13.834449 21.424588 22.72862 28.212245 1.571527 1.571527 3.134694 1.571527 4.706221 0 3.652963-7.314286 7.055151-15.1552 10.189845-23.514383 0.518269-2.081437 1.044898-3.652963 1.571526-4.706221a3.352033 3.352033 0 0 1 3.134694 0c-3.134694 20.897959-2.875559 35.267396 0.785763 43.099951 1.571527 1.571527 2.348931 3.652963 2.348931 6.269388-2.089796 6.269388-6.796016 8.885812-14.110302 7.840914-3.661322-1.053257-8.885812-3.402188-15.67347-7.055151a6.144 6.144 0 0 0-2.34893-0.777404c-9.93071-5.751118-18.808163-15.932604-26.649078-30.561175l-3.134694-4.706221c-17.244996 14.628571-34.749127 23.781878-52.504032 27.426482-2.089796 0-2.348931-1.044898-0.785764-3.134694 16.191739-8.885812 31.606073-21.675363 46.234645-38.40209-6.269388-15.673469-10.716473-34.481633-13.324538-56.42449l-25.077551 3.920458c-1.053257 0.526629-4.187951 1.312392-9.404082 2.34893l-3.920457-4.70622c0.518269 0 2.8672-0.259135 7.055151-0.785764l31.346939-4.70622a118.115265 118.115265 0 0 1-1.571527-19.593926 669.955135 669.955135 0 0 0-2.348931-30.561176c-0.526629-1.044898-0.785763-2.608065-0.785763-4.70622a14.703804 14.703804 0 0 1-0.785763-4.706221c0-0.518269 0.259135-1.044898 0.785763-1.571526 10.44898 0 19.853061 1.053257 28.212245 3.134694a3.352033 3.352033 0 0 1 0 3.134693l-1.571526 1.571527c-1.571527 2.089796-2.616424 3.134694-3.134694 3.134694v46.243004l27.426481-4.70622c4.70622-8.877453 7.565061-14.361078 8.618319-16.459233h3.143053c5.742759 4.187951 12.538776 8.359184 20.37969 12.538775 0.518269 1.053257 0.259135 2.089796-0.785764 3.134694l-57.996016 9.404082c0.518269 14.628571 3.393829 28.212245 8.618318 40.75102 8.350824-12.020506 14.887706-24.024294 19.593927-36.053159 0.518269-1.044898 1.571527-1.295673 3.134694-0.785763 12.538776 7.840914 20.630465 12.538776 24.291787 14.110302 1.053257 1.596604 1.053257 2.649861 0.016719 3.159771zM279.514384 422.138776c16.718367-2.608065 27.426482 1.312392 32.132702 11.753012 1.044898 6.796016-0.785763 11.493878-5.483625 14.110302-6.269388 2.089796-10.716473 0.526629-13.324539-4.706221-0.526629 0-0.785763-0.259135-0.785763-0.785763-4.70622-10.44898-9.144947-16.459233-13.324539-18.0224-1.053257-1.036539-0.785763-1.822302 0.785764-2.34893z m59.559183 113.634742V450.35102c-0.526629-7.314286-0.785763-12.538776-0.785763-15.673469-0.526629-1.571527 0.518269-2.081437 3.134694-1.571527 8.877453 1.053257 16.191739 2.616424 21.942857 4.706221 1.571527 1.053257 1.571527 2.348931 0 3.920457l-4.70622 4.70622v89.342956c0 3.661322 0.259135 7.055151 0.785763 10.189844-0.526629 4.187951-5.22449 6.796016-14.110302 7.840915-6.796016 0-9.404082-2.348931-7.840914-7.055151l1.579885-10.983968z m39.965257 31.346939v-150.465306c0-0.518269 0.259135-1.044898 0.785764-1.571527 9.922351 1.571527 18.808163 3.920457 26.649077 7.055152 0.518269 1.053257 0.518269 1.83902 0 2.34893l-6.269387 4.706221v46.234644l0.785763 103.444898c-3.134694 12.020506-11.243102 18.540669-24.291788 19.593927l-2.348931-2.348931c-0.526629-7.322645-8.359184-13.065404-23.514383-17.244996-1.053257-1.044898-1.053257-2.081437 0-3.134693 18.273176 2.089796 27.677257-0.785763 28.203885-8.618319zM466.810253 571.818318h81.502041c23.514384 2.616424 38.40209-10.699755 44.671477-39.965257 0.518269-0.518269 2.081437 0 4.706221 1.571527-5.22449 16.200098-5.751118 28.479739-1.571527 36.830563 2.081437 3.134694 2.8672 5.751118 2.348931 7.840914-2.089796 8.885812-11.243102 13.324539-27.426482 13.324539H450.35102c-10.457339-1.571527-16.200098-7.57342-17.244996-18.0224v-123.047184c2.616424-1.571527 11.485518 0 26.649078 4.706221 1.044898 2.089796 1.295673 3.402188 0.785763 3.920457-1.053257 1.571527-3.134694 2.616424-6.269387 3.134694v25.863314h91.691885v-52.504033H432.32862l-6.269387-4.70622c2.081437 0.526629 5.483624 0.785763 10.189845 0.785763H542.042906c3.652963-5.216131 6.269388-8.618318 7.840914-10.189845 1.044898-0.518269 2.348931-0.518269 3.920458 0 7.840914 3.661322 15.405976 8.108408 22.72862 13.324539l-0.785763 3.134694c-0.526629 1.053257-1.83902 2.089796-3.920457 3.134694a6.052049 6.052049 0 0 1-2.348931 0.785763l1.571526 58.773421c-1.053257 4.187951-6.269388 6.536882-15.673469 7.055151-6.269388 0-9.404082-2.348931-9.404082-7.055151v-8.618319H454.271478v67.400098c0 8.342465 4.179592 12.522057 12.538775 12.522057zM699.563363 498.942955c6.787657 2.089796 10.975608 3.402188 12.538776 3.920457l6.269388 1.571527v-10.975608c0.518269-4.179592 0.785763-10.189845 0.785763-18.0224v-1.571527l-19.593927 1.571527-10.189845 2.34893-7.055151-6.269388 10.189845-0.785763 26.649078-3.134694v-42.322547l-0.785763-11.753012c0-0.518269 0.518269-1.044898 1.571526-1.571526a131.239184 131.239184 0 0 1 22.72862 6.269387c0.518269 1.053257 0.785763 2.089796 0.785764 3.134694a25.411918 25.411918 0 0 1-3.920457 3.134694l-1.571527 0.785763v40.751021l24.291788-2.348931c1.044898-2.608065 3.134694-5.483624 6.269388-8.618318h3.134693c6.269388 2.089796 12.79791 6.010253 19.593927 11.753012v3.134694a40.190955 40.190955 0 0 0-3.920457 2.348931c-1.571527 0.526629-2.616424 1.053257-3.134694 1.571526-3.661322 22.469486-4.973714 42.840816-3.920457 61.13071 1.571527 20.37969 4.965355 31.873567 10.189845 34.481633 2.616424 0 6.787657-6.787657 12.538775-20.37969 0-1.044898 0.259135-1.830661 0.785763-2.34893 0-1.044898 0.518269-1.295673 1.571527-0.785764 1.044898 0.526629 1.571527 1.304033 1.571527 2.348931-5.22449 15.673469-6.536882 27.426482-3.920458 35.267396 0.518269 3.134694 0.785763 5.751118 0.785764 7.840914-0.526629 4.70622-3.661322 7.314286-9.404082 7.840914-10.975608-1.571527-19.075657-8.359184-24.291788-20.379689-9.93071-25.077551-11.753012-61.64062-5.483624-109.714286l-26.649078 2.34893v3.920458c0 14.110302-0.785763 26.649078-2.34893 37.616326 7.840914 5.751118 13.057045 10.975608 15.673469 15.67347 4.70622 8.359184 4.430367 15.414335-0.785763 21.157093-5.751118 4.70622-11.493878 3.402188-17.244996-3.920457-1.571527-2.081437-2.616424-4.70622-3.134694-7.840914-8.359184 23.514384-25.60418 43.885714-51.726629 61.13071-3.134694-0.526629-3.920457-1.83902-2.34893-3.920457 23.514384-18.808163 37.098057-44.930612 40.75102-78.367347-4.187951-4.179592-10.708114-9.136588-19.593926-14.887706-1.053257 0-1.304033-0.259135-0.785764-0.785763a123.715918 123.715918 0 0 0-10.189845 7.055151c-7.840914 4.70622-13.592033 8.108408-17.244995 10.189845l0.785763 65.042808c0.518269 10.975608-7.322645 18.289894-23.514384 21.942857-0.526629-0.526629-1.304033-0.785763-2.34893-0.785763 0-9.93071-6.269388-17.244996-18.808164-21.942857-1.053257-1.571527-1.053257-2.348931 0-2.348931 18.808163 2.616424 26.908212 0 24.291788-7.840914v-40.751021c-2.616424 2.089796-6.269388 4.438727-10.975608 7.055151-5.22449 3.134694-8.885812 5.483624-10.975608 7.055151-1.571527 1.053257-2.875559 1.304033-3.920457 0.785764a155.756669 155.756669 0 0 0-7.840915-23.514384c-0.526629-1.571527 0.259135-3.393829 2.348931-5.483625 9.404082-1.571527 19.853061-4.179592 31.346939-7.840914v-40.75102h-14.110302c-4.187951 0.526629-8.359184 0.785763-12.538776 0.785763l-4.70622-5.483625c2.081437 0.526629 4.430367 0.785763 7.055151 0.785764h24.291787v-41.536784l-0.752326-10.189845 0.785763-0.785763c2.081437 0.526629 4.179592 0.785763 6.269388 0.785763 8.885812 0.526629 14.887706 1.312392 18.0224 2.348931a3.352033 3.352033 0 0 1 0 3.134694c-1.053257 1.571527-2.875559 3.134694-5.483625 4.70622v41.536784h6.269388c2.081437-3.652963 6.001894-8.350824 11.753012-14.110302a3.352033 3.352033 0 0 1 3.134694 0c6.787657 4.70622 12.538776 9.671576 17.244996 14.887706 0.518269 1.571527 0.259135 2.616424-0.785763 3.134694h-37.616327l0.785764 35.267396c10.975608-2.616424 20.8896-6.001894 29.783771-10.189845 1.571527 2.089796 2.081437 3.402188 1.571527 3.920457l-0.794123 0.785763zM869.622596 417.440914c8.350824 6.269388 15.1552 11.753012 20.37969 16.459233 0.518269 1.571527 0.259135 2.616424-0.785764 3.134694-5.22449 0-8.108408 0.785763-8.618318 2.34893-22.469486 17.763265-43.099951 29.265502-61.908114 34.481633-1.571527-0.518269-1.83902-1.295673-0.785763-2.348931 15.673469-10.44898 31.865208-28.47138 48.591934-54.075559h3.126335z m5.483624 86.985666v90.120359c-1.053257 2.081437-5.22449 3.920457-12.538775 5.483624-5.751118 0.518269-8.618318-0.267494-8.618318-2.34893V509.124441a181.795527 181.795527 0 0 1-33.69587 22.72862c-1.053257 0.526629-1.304033-0.259135-0.785763-2.34893 17.244996-17.244996 32.918465-40.75102 47.020408-70.534792h3.134694c5.751118 3.661322 13.324539 8.359184 22.72862 14.110302 0.518269 1.571527 0.518269 2.616424 0 3.134694l-3.134694 1.571526c-2.089796 0.526629-3.920457 1.053257-5.483624 1.571527l-12.538776 14.110302c4.179592 1.571527 6.528522 2.348931 7.055151 2.34893 1.044898 1.053257 1.295673 2.348931 0.785764 3.920458-2.633143 1.554808-3.928816 3.117976-3.928817 4.689502z m76.018417 71.312196V491.887804h-46.234645c-4.187951 0.526629-8.359184 0.785763-12.538776 0.785763l-4.70622-5.483624c2.081437 0.526629 4.430367 0.785763 7.055151 0.785763h72.883722c1.044898-1.044898 2.8672-3.393829 5.483625-7.055151 3.134694-4.70622 5.751118-7.840914 7.840914-9.404082h3.134694c0 0.526629 0.518269 1.053257 1.571527 1.571527 12.538776 7.840914 19.593927 13.065404 21.157093 15.673469 0 2.089796-0.785763 3.134694-2.34893 3.134694h-25.077551a14.009992 14.009992 0 0 1-3.920457 3.920457c-2.089796 1.571527-3.134694 2.875559-3.134694 3.920458v55.638726c0 8.885812 0.259135 16.200098 0.785763 21.942857 0.518269 3.652963 0.785763 6.528522 0.785763 8.618319-0.526629 5.216131-9.144947 8.885812-25.863314 10.975608-1.571527 0-2.616424-0.785763-3.134694-2.348931-3.661322-8.885812-10.708114-14.628571-21.157094-17.244996-1.053257 0-1.304033-0.259135-0.785763-0.785763 0-1.044898 0.518269-1.571527 1.571527-1.571527 10.432261 2.616424 19.309714 2.8672 26.632359 0.777405z m-43.885715-140.275462h49.369339c0.518269-0.518269 2.348931-2.8672 5.483625-7.055151 3.134694-3.652963 5.216131-6.001894 6.269387-7.055151h3.143054c9.404082 5.751118 15.932604 10.716473 19.593926 14.887706 1.044898 2.089796 0.785763 3.402188-0.785763 3.920458h-85.422498l-4.706221-5.483625c2.081437 0.526629 4.430367 0.785763 7.055151 0.785763z" fill="#FF7272" p-id="6748"></path><path d="M737.213127 397.061224l1.103412-14.628571-62.008425-29.775412-29.775412-62.016784-68.595461 5.232849-56.792294-38.828408-56.792294 38.828408-68.595461-5.232849-29.775412 62.016784-62.016784 29.775412 1.111771 14.628571M305.394416 614.450155l-1.42942 18.758008 62.016784 29.767053 29.775412 62.016784 68.595461-5.22449 56.792294 38.828408 56.792294-38.828408 68.595461 5.22449 29.775412-62.016784 62.008425-29.767053-1.513012-19.894857" fill="#FF7272" p-id="6749"></path><path d="M519.757322 121.208163l24.559282 33.060572 39.029029 13.148996-23.840392 33.57884-0.451396 41.185698-39.296523-12.304718-39.31324 12.304718-0.443037-41.185698-23.848751-33.57884 39.037388-13.148996zM706.576718 192.211069l3.126335 27.04196 17.988963 20.413126L702.957192 251.001208l-13.867886 23.422433-18.415282-20.020245-26.573844-5.951739 13.366334-23.715004-2.566269-27.092114 26.682514 5.374955zM796.095216 297.612016l-7.690449 17.771625 3.820147 18.983706-19.276277-1.813943-16.877192 9.504392-4.229747-18.900114-14.260767-13.123919 16.676571-9.855477 8.058253-17.6128 14.536621 12.806269zM332.929567 192.20271l24.9856 10.808425 26.682515-5.374955-2.549551 27.100473 13.349616 23.715004-26.557127 5.94338-18.432 20.028604-13.859526-23.422433-24.743184-11.335053 17.988963-20.421486zM243.40271 297.595298l19.2512-2.231902 14.528261-12.79791 8.066613 17.604441 16.668212 9.863836-14.252408 13.115559-4.229747 18.900115-16.877192-9.496033-19.284637 1.813943 3.820147-18.992065z" fill="#FF7272" p-id="6750"></path><path d="M519.757322 893.763918l24.559282-33.060571 39.029029-13.140637-23.840392-33.5872-0.451396-41.185698-39.296523 12.304719-39.31324-12.304719-0.443037 41.185698-23.848751 33.5872 39.037388 13.140637zM706.576718 822.761012l3.126335-27.041959 17.988963-20.413126L702.957192 763.970873l-13.867886-23.422432-18.415282 20.020245-26.573844 5.943379 13.366334 23.723364-2.566269 27.092114 26.682514-5.374955zM796.095216 717.360065l-7.690449-17.771624 3.820147-18.983706-19.276277 1.813943-16.877192-9.504392-4.229747 18.900114-14.260767 13.115559 16.676571 9.863837 8.058253 17.6128 14.536621-12.814629zM332.929567 822.769371l24.9856-10.800065 26.682515 5.366596-2.549551-27.100473 13.349616-23.723364-26.557127-5.943379-18.432-20.020245-13.859526 23.422432-24.743184 11.335054 17.988963 20.421485zM243.40271 717.368424l19.2512 2.240262 14.528261 12.79791 8.066613-17.604441 16.668212-9.872196-14.252408-13.1072-4.229747-18.908473-16.877192 9.504392-19.284637-1.813943 3.820147 18.983706z" fill="#FF7272" p-id="6751"></path></svg>