<?xml version="1.0" standalone="no"?><!DOCTYPE svg PUBLIC "-//W3C//DTD SVG 1.1//EN" "http://www.w3.org/Graphics/SVG/1.1/DTD/svg11.dtd"><svg t="1492402339344" class="icon" style="" viewBox="0 0 1024 1024" version="1.1" xmlns="http://www.w3.org/2000/svg" p-id="9067" xmlns:xlink="http://www.w3.org/1999/xlink" width="128" height="128"><defs><style type="text/css"></style></defs><path d="M19.476 297.783v422.947h990.535v-422.947h-990.535zM1004.027 714.747h-978.565v-410.978h978.067v410.978zM90.299 386.063c13.466 0 24.441-10.973 24.441-24.441 0-13.466-10.973-24.441-24.441-24.441-13.466 0-24.441 10.973-24.441 24.441 0 13.466 10.973 24.441 24.441 24.441zM948.165 386.063c13.466 0 24.441-10.973 24.441-24.441 0-13.466-10.973-24.441-24.441-24.441-13.466 0-24.441 10.973-24.441 24.441 0 13.466 10.973 24.441 24.441 24.441zM90.299 683.824c13.466 0 24.441-10.973 24.441-24.441s-10.973-24.441-24.441-24.441c-13.466 0-24.441 10.973-24.441 24.441 0 13.466 10.973 24.441 24.441 24.441zM948.165 683.824c13.466 0 24.441-10.973 24.441-24.441s-10.973-24.441-24.441-24.441c-13.466 0-24.441 10.973-24.441 24.441 0 13.466 10.973 24.441 24.441 24.441z" p-id="9068" fill="#d81e06"></path></svg>