<?xml version="1.0" encoding="utf-8"?>
<!-- Generator: Adobe Illustrator 19.0.0, SVG Export Plug-In . SVG Version: 6.00 Build 0)  -->
<svg version="1.1" id="图层_1" xmlns="http://www.w3.org/2000/svg" xmlns:xlink="http://www.w3.org/1999/xlink" x="0px" y="0px"
	 viewBox="116 -72 240 132.7" style="enable-background:new 116 -72 240 132.7;" xml:space="preserve">
<style type="text/css">
	.st0{fill:#B5B5B6;stroke:#595758;stroke-width:2;stroke-miterlimit:10;}
	.st1{fill:#FFFFFF;stroke:#3E3A39;stroke-width:2;stroke-miterlimit:10;}
	.st2{fill:#FFFFFF;stroke:#201E1F;stroke-width:2;stroke-miterlimit:10;}
</style>
<path id="XMLID_37_" class="st0" d="M343,60.7H128.7c-6.6,0-12-5.4-12-12V-59c0-6.6,5.4-12,12-12H343c6.6,0,12,5.4,12,12V48.7
	C355,55.3,349.6,60.7,343,60.7z"/>
<path id="XMLID_38_" class="st1" d="M332.4,34.4H139.3c-6.6,0-12-5.4-12-12v-71c0-6.6,5.4-12,12-12h193.1c6.6,0,12,5.4,12,12v71.1
	C344.4,29,339,34.4,332.4,34.4z"/>
<ellipse id="XMLID_47_" class="st2" cx="235.5" cy="45.9" rx="8.8" ry="6.9"/>
</svg>
