<?xml version="1.0" encoding="utf-8"?>
<!-- Generator: Adobe Illustrator 19.0.0, SVG Export Plug-In . SVG Version: 6.00 Build 0)  -->
<svg version="1.1" id="图层_1" xmlns="http://www.w3.org/2000/svg" xmlns:xlink="http://www.w3.org/1999/xlink" x="0px" y="0px"
	 viewBox="0 0 340 280" style="enable-background:new 0 0 340 280;" xml:space="preserve">
<style type="text/css">
	.st0{fill:#CA6161;}
	.st1{fill:#AD5151;}
	.st2{fill:#9A4938;}
	.st3{fill:#5B3892;}
	.st4{fill:#E83219;}
	.st5{fill:#C2E3D9;}
	.st6{fill:#A54E4D;}
	.st7{fill:#783838;}
	.st8{fill:#F2B980;}
	.st9{fill:#FFFFFF;}
	.st10{font-family:'SourceHanSerifSC-Regular-GBpc-EUC-H';}
	.st11{font-size:21.3183px;}
</style>
<g id="XMLID_33_">
	<rect id="XMLID_61_" x="103.1" y="123.7" class="st0" width="132.8" height="148.7"/>
	<g id="XMLID_84_">
		<rect id="XMLID_80_" x="100" y="119.5" class="st1" width="4.2" height="152.8"/>
		<rect id="XMLID_83_" x="234.9" y="119.5" class="st1" width="4.2" height="152.8"/>
		<rect id="XMLID_81_" x="100" y="119.5" class="st1" width="137" height="5.1"/>
	</g>
	<polygon id="XMLID_82_" class="st2" points="269.9,120.2 69.1,120.2 100.1,74.6 239,74.6 	"/>
	<rect id="XMLID_85_" x="166" y="8.1" class="st3" width="3.6" height="66.5"/>
	<polygon id="XMLID_86_" class="st4" points="200,16.5 165.7,25.9 165.7,7 200,16.5 	"/>
	<rect id="XMLID_87_" x="7.9" y="172.8" class="st0" width="92.7" height="99.2"/>
	<rect id="XMLID_89_" x="237.8" y="173.5" class="st0" width="92.7" height="99.2"/>
	<rect id="XMLID_88_" x="5" y="168.7" class="st1" width="98.4" height="4.1"/>
	<rect id="XMLID_91_" x="234.9" y="169.4" class="st1" width="98.4" height="4.1"/>
	<g id="XMLID_94_">
		<rect id="XMLID_90_" x="34.4" y="189.6" class="st1" width="42.6" height="50.4"/>
		<rect id="XMLID_92_" x="40" y="195.6" class="st5" width="31.4" height="40"/>
		<rect id="XMLID_93_" x="40" y="210.7" class="st1" width="31.4" height="4.9"/>
	</g>
	<g id="XMLID_96_">
		<rect id="XMLID_99_" x="262.8" y="188.7" class="st1" width="42.6" height="50.4"/>
		<rect id="XMLID_98_" x="268.4" y="194.7" class="st5" width="31.4" height="40"/>
		<rect id="XMLID_97_" x="268.4" y="209.8" class="st1" width="31.4" height="4.9"/>
	</g>
	<g id="XMLID_104_">
		<rect id="XMLID_107_" x="187.9" y="130.8" class="st1" width="37" height="42.5"/>
		<rect id="XMLID_106_" x="192.7" y="135.9" class="st5" width="27.3" height="33.8"/>
		<rect id="XMLID_105_" x="192.7" y="148.6" class="st1" width="27.3" height="4.2"/>
	</g>
	<g id="XMLID_100_">
		<rect id="XMLID_103_" x="113.4" y="130.8" class="st1" width="37" height="42.5"/>
		<rect id="XMLID_102_" x="118.3" y="135.9" class="st5" width="27.3" height="33.8"/>
		<rect id="XMLID_101_" x="118.3" y="148.6" class="st1" width="27.3" height="4.2"/>
	</g>
	<rect id="XMLID_95_" x="124.1" y="193.5" class="st6" width="92.3" height="78.6"/>
	<rect id="XMLID_108_" x="131.4" y="199.6" class="st7" width="77.4" height="72.5"/>
	<ellipse id="XMLID_109_" class="st8" cx="154.3" cy="234.9" rx="3.6" ry="2.9"/>
	<ellipse id="XMLID_111_" class="st8" cx="182.9" cy="234.9" rx="3.6" ry="2.9"/>
	<text id="XMLID_51_" transform="matrix(1.0775 0 0 1 128.7875 105.7197)" class="st9 st10 st11">  学校</text>
</g>
</svg>
