<?xml version="1.0" encoding="utf-8"?>
<!-- Generator: Adobe Illustrator 19.0.0, SVG Export Plug-In . SVG Version: 6.00 Build 0)  -->
<svg version="1.1" id="图层_1" xmlns="http://www.w3.org/2000/svg" xmlns:xlink="http://www.w3.org/1999/xlink" x="0px" y="0px"
	 viewBox="0 0 80 120" style="enable-background:new 0 0 80 120;" xml:space="preserve">
<style type="text/css">
	.st0{fill:#106384;stroke:#201E1F;stroke-miterlimit:10;}
	.st1{fill:#F4F2E5;stroke:#201E1F;stroke-miterlimit:10;}
	.st2{fill:#040000;stroke:#201E1F;stroke-miterlimit:10;}
	.st3{fill:#192E7A;stroke:#201E1F;stroke-miterlimit:10;}
	.st4{fill:#0E9B94;stroke:#201E1F;stroke-miterlimit:10;}
</style>
<path id="XMLID_134_" class="st0" d="M45.3,84.9h-5.8c-4.6,0-8.4-3.8-8.4-8.4V48.9c0-4.6,3.8-8.4,8.4-8.4h5.8c4.6,0,8.4,3.8,8.4,8.4
	v27.5C53.7,81.1,50,84.9,45.3,84.9z"/>
<ellipse id="XMLID_133_" class="st1" cx="42.4" cy="28" rx="13.1" ry="12.9"/>
<ellipse id="XMLID_132_" class="st2" cx="49.9" cy="28" rx="1.3" ry="1.4"/>
<polygon id="XMLID_72_" class="st3" points="40.5,114.5 40.5,85.5 36.5,85.5 36.5,113.6 36.5,116.5 40.8,116.5 41.5,116.5 
	41.5,114.5 "/>
<polygon id="XMLID_70_" class="st3" points="48.5,114.5 48.5,85.5 44.5,85.5 44.5,113.6 44.5,116.5 48.8,116.5 49.5,116.5 
	49.5,114.5 "/>
<rect id="XMLID_69_" x="24.6" y="46.5" class="st4" width="6.5" height="30.5"/>
<path id="XMLID_68_" class="st4" d="M27.2,46.4c0-2.1,2.4-3.9,5.3-3.9"/>
<path id="XMLID_46_" class="st1" d="M49.8,74.6l-3.4-20.8l-3.5,0.6L46.5,76c0,0,0,0,0,0.1c-0.2,1.2,0.6,2.3,1.9,2.6
	c1.3,0.3,2.5-0.5,2.7-1.6C51.3,76,50.7,75.1,49.8,74.6z"/>
</svg>
