<?xml version="1.0" encoding="utf-8"?>
<!-- Generator: Adobe Illustrator 19.0.0, SVG Export Plug-In . SVG Version: 6.00 Build 0)  -->
<svg version="1.1" id="图层_1" xmlns="http://www.w3.org/2000/svg" xmlns:xlink="http://www.w3.org/1999/xlink" x="0px" y="0px"
	 viewBox="0 0 80 120" style="enable-background:new 0 0 80 120;" xml:space="preserve">
<style type="text/css">
	.st0{fill:#F4F2E5;stroke:#201E1F;stroke-miterlimit:10;}
	.st1{fill:#727171;stroke:#201E1F;stroke-miterlimit:10;}
	.st2{fill:#040000;stroke:#201E1F;stroke-miterlimit:10;}
	.st3{fill:#8A8A8A;stroke:#201E1F;stroke-miterlimit:10;}
	.st4{fill:#0E9B94;stroke:#201E1F;stroke-miterlimit:10;}
	.st5{fill:none;stroke:#201E1F;stroke-miterlimit:10;}
</style>
<rect id="XMLID_27_" x="30.1" y="17" class="st0" width="22.4" height="22"/>
<path id="XMLID_143_" class="st1" d="M44.3,83.4h-5.8c-4.6,0-8.4-3.8-8.4-8.4V47.4c0-4.6,3.8-8.4,8.4-8.4h5.8c4.6,0,8.4,3.8,8.4,8.4
	V75C52.7,79.6,49,83.4,44.3,83.4z"/>
<ellipse id="XMLID_141_" class="st2" cx="47.9" cy="27.5" rx="1.3" ry="1.4"/>
<polygon id="XMLID_140_" class="st1" points="39.5,112.5 39.5,83.5 35.5,83.5 35.5,112.1 35.5,114.5 39.8,114.5 40.5,114.5 
	40.5,112.5 "/>
<polygon id="XMLID_139_" class="st1" points="47.5,112.5 47.5,83.5 43.5,83.5 43.5,112.1 43.5,114.5 47.8,114.5 48.5,114.5 
	48.5,112.5 "/>
<rect id="XMLID_138_" x="23.6" y="45" class="st3" width="6.5" height="30.5"/>
<path id="XMLID_137_" class="st4" d="M26.2,44.9c0-2.1,2.4-3.9,5.3-3.9"/>
<path id="XMLID_136_" class="st0" d="M48.8,73.1l-3.4-20.8l-3.5,0.6l3.5,21.6c0,0,0,0,0,0.1c-0.2,1.2,0.6,2.3,1.9,2.6
	c1.3,0.3,2.5-0.5,2.7-1.6C50.3,74.5,49.7,73.6,48.8,73.1z"/>
<line id="XMLID_135_" class="st5" x1="45" y1="25.5" x2="50" y2="25.5"/>
</svg>
