<?xml version="1.0" encoding="utf-8"?>
<!-- Generator: Adobe Illustrator 19.0.0, SVG Export Plug-In . SVG Version: 6.00 Build 0)  -->
<svg version="1.1" id="图层_1" xmlns="http://www.w3.org/2000/svg" xmlns:xlink="http://www.w3.org/1999/xlink" x="0px" y="0px"
	 viewBox="0 0 80 120" style="enable-background:new 0 0 80 120;" xml:space="preserve">
<style type="text/css">
	.st0{fill:#106384;stroke:#201E1F;stroke-miterlimit:10;}
	.st1{fill:#F4F2E5;stroke:#201E1F;stroke-miterlimit:10;}
	.st2{fill:#040000;stroke:#201E1F;stroke-miterlimit:10;}
	.st3{fill:#192E7A;stroke:#201E1F;stroke-miterlimit:10;}
	.st4{fill:#0E9B94;stroke:#201E1F;stroke-miterlimit:10;}
	.st5{fill:none;stroke:#EFB134;stroke-miterlimit:10;}
</style>
<g id="XMLID_48_">
	<path id="XMLID_123_" class="st0" d="M41.3,84.4h-5.8c-4.6,0-8.4-3.8-8.4-8.4V48.4c0-4.6,3.8-8.4,8.4-8.4h5.8
		c4.6,0,8.4,3.8,8.4,8.4V76C49.7,80.6,46,84.4,41.3,84.4z"/>
	<ellipse id="XMLID_122_" class="st1" cx="38.4" cy="27.5" rx="13.1" ry="12.9"/>
	<ellipse id="XMLID_121_" class="st2" cx="43.9" cy="26.5" rx="1.3" ry="1.4"/>
	<polygon id="XMLID_120_" class="st3" points="36.5,113.5 36.5,84.5 32.5,84.5 32.5,113.1 32.5,115.5 36.8,115.5 37.5,115.5 
		37.5,113.5 	"/>
	<polygon id="XMLID_119_" class="st3" points="44.5,113.5 44.5,84.5 40.5,84.5 40.5,113.1 40.5,115.5 44.8,115.5 45.5,115.5 
		45.5,113.5 	"/>
	<rect id="XMLID_118_" x="20.6" y="46" class="st4" width="6.5" height="30.5"/>
	<path id="XMLID_117_" class="st4" d="M23.2,45.9c0-2.1,2.4-3.9,5.3-3.9"/>
	<path id="XMLID_116_" class="st1" d="M45.8,74.1l-3.4-20.8l-3.5,0.6l3.5,21.6c0,0,0,0,0,0.1c-0.2,1.2,0.6,2.3,1.9,2.6
		c1.3,0.3,2.5-0.5,2.7-1.6C47.3,75.5,46.7,74.6,45.8,74.1z"/>
	<g id="XMLID_112_">
		<path id="XMLID_129_" class="st5" d="M58.1,10.4c0-1.5-0.9-2.8-2-2.8c-1.1,0-2,1.2-2,2.8c0,0.6,0.2,1.6,0.4,2.1l0.7,3h0.6h0.6H57
			l0.7-3C57.9,12,58.1,11.1,58.1,10.4z"/>
		<line id="XMLID_76_" class="st5" x1="55.5" y1="4" x2="55.5" y2="7"/>
		<line id="XMLID_128_" class="st5" x1="53.3" y1="4.8" x2="54.2" y2="7"/>
		<line id="XMLID_130_" class="st5" x1="51.9" y1="7" x2="53.5" y2="8.5"/>
		<line id="XMLID_127_" class="st5" x1="58.3" y1="4.8" x2="57.4" y2="7"/>
		<line id="XMLID_131_" class="st5" x1="60.2" y1="6.3" x2="58.6" y2="7.9"/>
	</g>
</g>
</svg>
